<svg width="140" height="96" viewBox="0 0 140 96" fill="none" xmlns="http://www.w3.org/2000/svg">
<g clip-path="url(#clip0_3192_139668)">
<path d="M126 91C126 125.794 97.7939 154 63 154C28.2061 154 0 125.794 0 91C0 56.2061 28.2061 28 63 28C97.7939 28 126 56.2061 126 91Z" fill="#03633E"/>
<path d="M120 30L119.483 30.2112C118.522 30.6032 117.65 31.1829 116.916 31.9164C116.183 32.6499 115.603 33.5224 115.211 34.4827L115 35L114.789 34.4827C114.397 33.5224 113.817 32.6499 113.084 31.9164C112.35 31.1829 111.478 30.6032 110.517 30.2112L110 30L110.517 29.7889C111.478 29.3968 112.35 28.8171 113.084 28.0836C113.817 27.3501 114.397 26.4776 114.789 25.5173L115 25L115.211 25.5173C115.603 26.4776 116.183 27.3501 116.916 28.0836C117.65 28.8171 118.522 29.3968 119.483 29.7889L120 30Z" fill="#D3F035"/>
<path d="M66 6.00001L65.4827 6.21117C64.5224 6.6032 63.6499 7.18294 62.9164 7.91642C62.1829 8.6499 61.6032 9.52237 61.2111 10.4827L61 11L60.7888 10.4827C60.3968 9.52237 59.8171 8.6499 59.0836 7.91642C58.3501 7.18294 57.4776 6.6032 56.5173 6.21117L56 6.00001L56.5173 5.78885C57.4776 5.39682 58.3501 4.81708 59.0836 4.0836C59.8171 3.35012 60.3968 2.47765 60.7888 1.51729L61 1L61.2111 1.51727C61.6032 2.47763 62.1829 3.35011 62.9164 4.08359C63.6499 4.81708 64.5224 5.39681 65.4827 5.78885L66 6.00001Z" fill="#D3F035"/>
<path d="M75 29L74.5862 29.1689C73.8179 29.4826 73.1199 29.9464 72.5331 30.5331C71.9463 31.1199 71.4826 31.8179 71.1689 32.5862L71 33L70.8311 32.5862C70.5174 31.8179 70.0537 31.1199 69.4669 30.5331C68.8801 29.9463 68.1821 29.4826 67.4138 29.1689L67 29L67.4138 28.8311C68.1821 28.5175 68.8801 28.0537 69.4669 27.4669C70.0537 26.8801 70.5174 26.1821 70.8311 25.4138L71 25L71.1689 25.4138C71.4825 26.1821 71.9463 26.8801 72.5331 27.4669C73.1199 28.0537 73.8179 28.5175 74.5862 28.8311L75 29Z" fill="#D3F035"/>
<path d="M27 30L26.3793 30.2534C25.2268 30.7238 24.1799 31.4195 23.2997 32.2997C22.4195 33.1799 21.7238 34.2268 21.2534 35.3793L21 36L20.7466 35.3793C20.2762 34.2268 19.5805 33.1799 18.7003 32.2997C17.8201 31.4195 16.7732 30.7238 15.6207 30.2534L15 30L15.6207 29.7466C16.7732 29.2762 17.8201 28.5805 18.7003 27.7003C19.5805 26.8201 20.2762 25.7732 20.7466 24.6207L21 24L21.2534 24.6207C21.7238 25.7732 22.4195 26.8201 23.2997 27.7003C24.1799 28.5805 25.2268 29.2762 26.3793 29.7466L27 30Z" fill="#8CD421"/>
<path fill-rule="evenodd" clip-rule="evenodd" d="M15.0073 59.7452C15.0073 59.7452 15.8744 58.7429 14.4778 55.2164C13.0813 51.6905 7.896 51.4464 7.896 51.4464L10.4417 59.6386L15.0073 59.7452Z" fill="#E48544"/>
<path fill-rule="evenodd" clip-rule="evenodd" d="M36.5271 93.4395C36.5271 93.4395 35.8453 100.245 35.8008 101.862C35.8008 101.862 42.2224 97.5507 59.803 102.02L59.8481 91.2407L36.5271 93.4395Z" fill="#6B514C"/>
<path fill-rule="evenodd" clip-rule="evenodd" d="M102.7 89.7964L76.9797 90.9696C76.9797 90.9696 75.5271 97.2815 76.0798 104.158C76.0798 104.158 85.7405 104.967 93.3545 100.467C101.299 95.7727 103.61 97.9362 103.61 97.9362L102.7 89.7964Z" fill="#6B514C"/>
<path fill-rule="evenodd" clip-rule="evenodd" d="M36.5275 93.4396C36.5275 93.4396 36.1192 98.1986 36.0918 99.192C36.8175 98.3039 39.6624 97.6675 40.1151 97.5981C45.0963 96.8324 49.6394 99.6474 54.3073 100.983C57.909 102.013 61.5923 102.729 65.2933 103.198C66.3298 103.329 67.3766 103.444 68.4295 103.538C68.4295 103.538 68.945 96.4489 65.8435 92.0898L36.5275 93.4396Z" fill="#3D2E2C"/>
<path fill-rule="evenodd" clip-rule="evenodd" d="M83.1307 102.59C85.2006 102.737 87.4033 102.101 89.3056 101.478C91.9445 100.614 94.425 99.2511 96.6015 97.4812C98.6165 95.8438 100.433 93.7428 102.809 92.6522C102.53 85.8666 100.625 80.6162 98.3155 80.6162C97.1859 80.6162 96.1543 81.874 95.3603 83.9491C93.441 82.4442 91.1603 81.481 88.7096 81.481C81.8938 81.481 76.3679 88.9112 76.3673 94.8491C76.3673 97.6225 77.9467 100.415 80.351 101.786C81.2187 102.281 82.1601 102.522 83.1307 102.59Z" fill="#3D2E2C"/>
<path fill-rule="evenodd" clip-rule="evenodd" d="M43.7031 45.1456C43.7031 45.1456 37.9944 47.0164 33.8925 48.9414C32.7335 49.4851 31.772 50.389 31.1426 51.5344C29.2013 55.0654 24.9081 63.4859 23.999 70.4291C23.23 76.2957 22.9321 78.8786 28.7157 83.7619C34.3915 84.3208 43.7031 45.1456 43.7031 45.1456Z" fill="#E48544"/>
<path fill-rule="evenodd" clip-rule="evenodd" d="M31.1541 51.5195C29.6595 54.2468 26.7494 59.9204 25.0786 65.5694C26.1114 65.3442 31.7452 64.6119 37.8718 73.4714L43.703 45.1458C43.703 45.1458 37.998 47.0147 33.8967 48.9384C32.742 49.4809 31.7793 50.3778 31.1541 51.5195Z" fill="#00B14F"/>
<path fill-rule="evenodd" clip-rule="evenodd" d="M39.6023 55.645C39.6023 55.645 37.5087 54.239 35.133 55.8203C33.1899 57.1134 31.1718 64.0434 30.5004 66.5273C32.6397 67.5832 35.2092 69.6198 37.8725 73.4712L41.5217 55.7427L39.6023 55.645Z" fill="#00804A"/>
<path fill-rule="evenodd" clip-rule="evenodd" d="M15.0839 56.9837L9.12787 56.7358C8.86038 56.7251 8.63127 56.5346 8.56242 56.2672L5.19411 43.2012C5.09175 42.8039 5.37813 42.4115 5.77662 42.4071L11.6242 42.3364C11.9027 42.3333 12.1489 42.5257 12.2208 42.8045L15.6981 56.1884C15.8048 56.6002 15.4952 57.0008 15.0839 56.9837Z" fill="#6B514C"/>
<path fill-rule="evenodd" clip-rule="evenodd" d="M15.002 59.7359C15.002 59.7359 15.5948 58.5394 13.3793 55.4948C11.1639 52.4514 6.08887 53.5767 6.08887 53.5767L10.56 60.8322L15.002 59.7359Z" fill="#E48544"/>
<path fill-rule="evenodd" clip-rule="evenodd" d="M14.2586 56.9615L8.31352 56.7136C8.04725 56.7029 7.81875 56.513 7.74929 56.2462L4.38708 43.2042C4.28471 42.8075 4.5717 42.4158 4.96898 42.4114L10.8056 42.3407C11.0841 42.3376 11.3284 42.53 11.4015 42.8081L14.8716 56.1668C14.9788 56.5786 14.6699 56.9779 14.2586 56.9615Z" fill="#3D2E2C"/>
<path fill-rule="evenodd" clip-rule="evenodd" d="M7.49898 55.1808L10.9416 55.5025C11.2908 55.5353 11.6204 55.3252 11.7429 54.9859C11.8501 54.6876 11.9543 54.3268 11.9823 54.0284C12.4838 53.4834 12.5977 52.8887 12.3254 52.2453C12.9134 51.7401 12.9585 51.0973 12.6855 50.3739L12.7001 50.3581C13.3174 49.7355 13.0675 48.6595 12.2474 48.3857C10.4609 47.7872 8.5994 47.7581 6.71844 47.7581H6.50152C5.64848 47.7581 4.90816 48.37 4.71927 49.2309L3.72243 53.7686C3.5902 54.3697 3.74984 55.0004 4.14956 55.4571L10.3445 62.546C10.3445 62.546 14.207 64.2882 15.0813 60.1C15.0813 56.2852 7.49898 55.1808 7.49898 55.1808Z" fill="#FDB47E"/>
<path d="M5.927 51.2756C5.927 51.2756 9.64506 51.0107 12.3456 52.2527" stroke="#E48544" stroke-width="0.541667" stroke-linecap="round"/>
<path d="M6.32275 49.4207C6.32275 49.4207 10.0103 49.1577 12.7078 50.382" stroke="#E48544" stroke-width="0.541667" stroke-linecap="round"/>
<path d="M5.53149 53.0343C5.53149 53.0343 9.28306 52.7668 11.9872 54.0283" stroke="#E48544" stroke-width="0.541667" stroke-linecap="round"/>
<path fill-rule="evenodd" clip-rule="evenodd" d="M55.421 34.9853C55.421 34.9853 55.0743 38.9861 55.8487 45.3081L51.567 49.109L44.1711 49.0226C44.1711 49.0226 45.0102 44.3841 44.4155 40.1126L55.421 34.9853Z" fill="#FDB47E"/>
<path fill-rule="evenodd" clip-rule="evenodd" d="M55.4211 34.9853L51.095 37.0005L51.2497 40.2999C51.2497 40.2999 53.4859 37.0749 55.362 36.2001C55.3827 35.148 55.4211 34.9853 55.4211 34.9853Z" fill="#E48544"/>
<path fill-rule="evenodd" clip-rule="evenodd" d="M49.5605 37.6232L44.4161 40.1121C45.0102 44.3836 44.1711 49.0221 44.1711 49.0221L44.9633 49.0316C45.7078 47.9151 47.0867 46.5597 48.8574 44.3684C51.6755 40.8791 52.623 37.0953 52.623 37.0953L49.5605 37.6232Z" fill="#E48544"/>
<path fill-rule="evenodd" clip-rule="evenodd" d="M38.5319 95.5863C34.3641 95.4671 33.137 91.5343 33.4313 87.9328C33.7883 83.5636 34.5768 79.2076 34.5847 74.8138C34.6225 55.5356 37.3467 47.8657 37.3467 47.8657C40.3348 46.2277 42.8099 44.8179 42.8099 44.8179C44.6128 41.8074 45.1923 42.1385 45.1923 42.1385C45.1923 42.1385 44.9138 44.7542 45.5609 47.2066C45.6182 47.4217 45.8089 47.5699 46.0246 47.5768L47.4705 47.6191C47.8709 47.6311 48.2639 47.5163 48.6002 47.2924C49.619 46.6124 51.9478 44.9781 54.1834 42.8185C54.9493 42.0786 55.3978 41.0517 55.4069 39.9675L55.4087 39.7663C55.4087 39.7663 56.1448 39.9517 58.0751 42.78C58.0751 42.78 63.9849 46.0618 69.4352 50.3181C69.4352 50.3181 71.9767 54.4873 72.9162 58.6629C72.9162 58.6629 69.2512 69.2519 67.7383 74.4461C67.6926 78.4261 67.5963 85.6873 67.5274 90.7692C67.486 93.8776 64.9957 96.347 61.9942 96.2587C61.9942 96.2587 38.5623 95.5869 38.5319 95.5863Z" fill="#00B14F"/>
<path fill-rule="evenodd" clip-rule="evenodd" d="M64.1128 76.9907C63.2037 73.7991 62.2629 64.5763 61.7895 60.8934C57.8698 60.6682 57.7248 73.7821 56.89 78.8117C56.2874 82.4442 54.7117 86.1984 51.8741 88.541C49.7061 90.3323 47.0459 91.2639 44.3685 91.8663C42.4644 92.2952 40.174 92.3444 38.4124 93.271C37.4546 93.7749 37.1914 94.5331 37.4363 95.4439C37.7788 95.5196 38.1383 95.5751 38.5325 95.5858C38.5623 95.5864 61.9942 96.2588 61.9942 96.2588C64.9951 96.3465 67.486 93.8771 67.5275 90.7694C67.5805 86.8525 67.6505 81.6463 67.6999 77.6404C66.6007 77.5016 65.4131 77.296 64.1128 76.9907Z" fill="#00804A"/>
<path fill-rule="evenodd" clip-rule="evenodd" d="M76.827 69.4399L65.1677 74.134C65.9014 77.0443 69.3592 83.0547 69.3592 83.0547C64.3768 89.1395 64.6364 93.9641 62.0066 101.958C64.8381 105.495 69.3135 103.373 69.3135 103.373C73.0724 99.0927 80.4811 81.2797 80.4811 81.2797C78.6373 74.3894 78.4393 74.3371 76.827 69.4399Z" fill="#FDB47E"/>
<path fill-rule="evenodd" clip-rule="evenodd" d="M76.8276 69.4399L65.1683 74.134C65.902 77.0436 69.3598 83.0547 69.3598 83.0547C69.0643 83.4161 68.7919 83.7762 68.5342 84.1364C69.9856 85.782 72.298 89.4933 73.7591 95.9674C76.6808 89.4851 80.4817 81.2797 80.4817 81.2797C78.6379 74.3894 78.4399 74.3371 76.8276 69.4399Z" fill="#E48544"/>
<path fill-rule="evenodd" clip-rule="evenodd" d="M65.7638 77.3013C64.4562 73.8359 63.1157 68.0463 62.3662 64.3911C61.9671 62.4421 61.9836 60.425 62.4266 58.4867C64.2076 50.7007 68.2297 49.8807 68.2297 49.8807C69.3959 50.5929 70.5658 51.3498 71.6114 52.1022C73.0549 53.1404 74.0974 54.6706 74.5581 56.4266C75.6353 60.541 77.7893 69 79.0877 75.7093C79.0877 75.7093 73.9055 79.7637 65.7638 77.3013Z" fill="#00B14F"/>
<path fill-rule="evenodd" clip-rule="evenodd" d="M76.6114 64.5651C75.8223 61.3098 75.0692 58.3775 74.558 56.4272C74.38 55.7498 74.1138 55.1077 73.7738 54.5123C72.8689 55.061 72.1835 55.5278 71.6759 55.9018C70.8655 56.4985 70.2379 57.3122 69.854 58.2621C67.8896 63.1157 66.3297 70.7042 65.559 74.8924C65.4109 75.6966 65.4724 76.5273 65.7594 77.2905L65.7637 77.3012C69.5616 78.4498 72.7142 78.1805 74.9985 77.5661C75.5475 73.8334 76.205 68.9602 76.6114 64.5651Z" fill="#00804A"/>
<path fill-rule="evenodd" clip-rule="evenodd" d="M47.0735 49.1824L50.3747 49.2789L50.2285 46.1453C49.5479 46.6487 48.9782 47.0404 48.5955 47.2952C48.2604 47.5185 47.8698 47.6307 47.4707 47.6187L46.0248 47.5765C45.8103 47.5696 45.6178 47.4213 45.5617 47.2062C45.396 46.5799 45.2918 45.9435 45.2272 45.3424L44.1749 45.3657C44.1749 45.3657 42.5243 50.5019 42.9417 53.8341C42.9922 54.2416 43.5175 54.3495 43.7259 54.0007C44.4784 52.7404 45.881 50.4975 47.0735 49.1824Z" fill="#00804A"/>
<path fill-rule="evenodd" clip-rule="evenodd" d="M45.6637 47.5656C44.8862 45.0173 45.1975 41.7343 45.1975 41.7343C45.1975 41.7343 42.388 46.429 42.3855 50.4859C42.3831 54.5429 42.7249 50.9987 45.6637 47.5656Z" fill="#00B14F"/>
<path fill-rule="evenodd" clip-rule="evenodd" d="M45.6596 47.5508C44.887 45.0045 45.1978 41.7341 45.1978 41.7341C45.1978 41.7341 44.3667 43.6093 44.2869 46.0276C44.26 46.8419 44.8724 47.5275 45.6596 47.5508Z" fill="#00804A"/>
<mask id="mask0_3192_139668" style="mask-type:alpha" maskUnits="userSpaceOnUse" x="35" y="14" width="23" height="19">
<path d="M35.026 14.1474H57.8445V32.3546H35.026V14.1474Z" fill="white"/>
</mask>
<g mask="url(#mask0_3192_139668)">
<path fill-rule="evenodd" clip-rule="evenodd" d="M40.502 32.3126C40.502 32.3126 35.4599 29.9177 35.0729 24.6377C34.6854 19.3583 36.7449 16.9501 39.499 14.1464C39.499 14.1464 40.034 16.964 42.1264 16.7994C44.2194 16.6354 51.5062 12.7846 55.8872 19.3387C60.2682 25.8922 55.9262 32.3542 55.9262 32.3542L40.502 32.3126Z" fill="#3D2E2C"/>
</g>
<mask id="mask1_3192_139668" style="mask-type:alpha" maskUnits="userSpaceOnUse" x="35" y="14" width="18" height="19">
<path d="M35.0266 14.1474H52.3404V32.3234H35.0266V14.1474Z" fill="white"/>
</mask>
<g mask="url(#mask1_3192_139668)">
<path fill-rule="evenodd" clip-rule="evenodd" d="M40.3682 22.2875C37.374 19.8673 39.4993 14.1458 39.4993 14.1458C36.7458 16.9489 34.6863 19.3571 35.0738 24.6371C35.4601 29.9171 40.5028 32.312 40.5028 32.312L44.3799 32.3221L52.3406 23.988C52.3406 23.988 43.185 24.5639 40.3682 22.2875Z" fill="#543F3D"/>
</g>
<path fill-rule="evenodd" clip-rule="evenodd" d="M39.5417 26.1711C39.4259 27.3436 39.3199 29.1823 39.4747 31.294C39.4747 31.294 40.1571 33.8517 40.3509 35.5383C40.633 37.9983 41.8711 41.0927 42.5085 42.5624C42.7443 43.1054 43.2604 43.4486 43.8344 43.4517C44.7246 43.4574 46.1571 43.3924 47.751 43.031C47.751 43.031 52.9954 41.7033 53.8796 37.0975L53.8704 30.5119L52.9973 23.7761L48.3049 24.1445L40.9834 24.7197C40.226 24.7796 39.6197 25.3889 39.5417 26.1711Z" fill="#FDB47E"/>
<path fill-rule="evenodd" clip-rule="evenodd" d="M49.3701 29.472C49.0179 29.4158 48.7011 29.4045 48.3684 29.4038C48.0387 29.4051 47.7109 29.4265 47.3837 29.4606C46.7305 29.5357 46.0816 29.6675 45.4455 29.851C45.1622 29.9318 44.9946 30.2333 45.072 30.5253C45.1488 30.8167 45.4412 30.9876 45.7246 30.9069C45.7477 30.9006 45.7745 30.8905 45.7952 30.8811C46.3515 30.6313 46.9274 30.4269 47.5172 30.2724C47.8127 30.198 48.1119 30.1355 48.4123 30.0907C48.7084 30.0478 49.0252 30.0182 49.3019 30.022L49.3232 30.0226C49.4713 30.0245 49.5937 29.9028 49.5962 29.7495C49.5986 29.6101 49.5005 29.4928 49.3701 29.472Z" fill="#3D2E2C"/>
<path fill-rule="evenodd" clip-rule="evenodd" d="M51.0041 23.318C51.0041 23.318 49.5771 25.1453 50.3497 28.6308C51.5897 28.5336 52.6712 29.4949 52.7657 30.7791L52.9363 33.1034L56.4575 32.8265L55.7336 22.9465L51.0041 23.318Z" fill="#3D2E2C"/>
<path fill-rule="evenodd" clip-rule="evenodd" d="M53.2727 31.4963C53.0284 32.7786 52.0059 35.7475 54.2519 36.0434C55.2963 36.1815 57.4002 33.8219 57.6976 31.9889C57.906 30.7003 57.1486 29.5567 55.9269 29.4211C54.7052 29.2849 53.5164 30.214 53.2727 31.4963Z" fill="#FDB47E"/>
<path d="M56.0659 30.3209C56.0659 30.3209 54.6815 29.9349 54.1788 31.6234C53.9047 32.5456 54.6681 33.3403 54.8747 34.1817C54.9076 34.3155 54.9149 34.4618 54.8601 34.5886C54.8241 34.6706 54.7626 34.7406 54.6888 34.7898C54.5414 34.8894 54.3555 34.9027 54.1929 34.8371" stroke="#E48544" stroke-width="0.541667" stroke-linecap="round"/>
<path fill-rule="evenodd" clip-rule="evenodd" d="M45.9919 31.8189C45.9919 31.8189 47.6377 31.1794 49.2695 31.807L45.9919 31.8189Z" fill="#FDB47E"/>
<path d="M45.9919 31.8189C45.9919 31.8189 47.6377 31.1794 49.2695 31.807" stroke="#3D2E2C" stroke-width="0.541667" stroke-linecap="round"/>
<path fill-rule="evenodd" clip-rule="evenodd" d="M47.9821 32.3953C48.0229 32.8028 47.7377 33.1667 47.3447 33.209C46.9517 33.2513 46.5995 32.9567 46.5587 32.5492C46.5179 32.143 46.8024 31.7778 47.1961 31.7356C47.5885 31.6933 47.9412 31.9879 47.9821 32.3953Z" fill="#3D2E2C"/>
<path fill-rule="evenodd" clip-rule="evenodd" d="M39.2215 30.5851C39.4805 30.4961 39.7163 30.4469 39.9667 30.404C40.2135 30.3624 40.4615 30.3366 40.7107 30.3208C41.2091 30.2937 41.7094 30.3101 42.2053 30.3687C42.4265 30.394 42.5831 30.6027 42.5551 30.8355C42.5277 31.0682 42.326 31.236 42.1048 31.2108C42.0871 31.2089 42.0658 31.2045 42.0494 31.2007C41.6064 31.0808 41.1531 30.9988 40.6942 30.9572C40.4651 30.9389 40.2342 30.9295 40.0045 30.9345C39.7778 30.9396 39.5371 30.9578 39.33 30.9957L39.3135 30.9988C39.2032 31.0197 39.0984 30.9421 39.0808 30.826C39.0643 30.7194 39.1265 30.6179 39.2215 30.5851Z" fill="#3D2E2C"/>
<path fill-rule="evenodd" clip-rule="evenodd" d="M42.1611 32.1258C42.1611 32.1258 41.0954 31.8212 40.1077 32.3094L42.1611 32.1258Z" fill="#FDB47E"/>
<path d="M42.1611 32.1258C42.1611 32.1258 41.0954 31.8212 40.1077 32.3094" stroke="#3D2E2C" stroke-width="0.541667" stroke-linecap="round"/>
<path fill-rule="evenodd" clip-rule="evenodd" d="M41.8427 32.7998C41.8793 33.1574 41.6277 33.4785 41.2816 33.5163C40.9361 33.5535 40.6259 33.2937 40.5894 32.9354C40.554 32.5771 40.8051 32.2567 41.1506 32.2189C41.4973 32.1817 41.8062 32.4422 41.8427 32.7998Z" fill="#3D2E2C"/>
<path fill-rule="evenodd" clip-rule="evenodd" d="M42.8394 31.1465C42.8394 31.1465 43.2574 31.6555 43.1544 32.8451C43.0515 34.0347 42.6627 36.4807 42.6627 36.4807C42.6627 36.4807 43.2148 37.1745 44.3615 36.9872C45.2383 36.844 45.7916 36.3955 45.7916 36.3955" fill="#FDB47E"/>
<path d="M42.8394 31.1465C42.8394 31.1465 43.2574 31.6555 43.1544 32.8451C43.0515 34.0347 42.6627 36.4807 42.6627 36.4807C42.6627 36.4807 43.2148 37.1745 44.3615 36.9872C45.2383 36.844 45.7916 36.3955 45.7916 36.3955" stroke="#E48544" stroke-width="0.541667" stroke-linecap="round"/>
<path fill-rule="evenodd" clip-rule="evenodd" d="M42.533 36.5784C42.533 36.5784 43.2148 37.1738 44.3615 36.9865C45.2377 36.8439 45.8988 36.4976 45.8988 36.4976C45.8988 36.4976 45.4528 37.2406 44.7789 37.9364C44.4864 38.2385 44.0185 38.258 43.712 37.9723C43.4098 37.691 43.0027 37.2482 42.533 36.5784Z" fill="#E48544"/>
<path fill-rule="evenodd" clip-rule="evenodd" d="M47.9927 38.0407C46.2677 38.7414 42.9031 38.8171 42.9031 38.8171C42.9031 38.8171 43.5898 39.5261 44.2095 39.7885C44.2095 39.7885 46.275 40.1266 47.9927 38.0407Z" fill="white"/>
<path fill-rule="evenodd" clip-rule="evenodd" d="M42.9037 38.8178C42.9037 38.8178 46.2677 38.7421 47.9933 38.0413L42.9037 38.8178Z" fill="#FDB47E"/>
<path d="M42.9037 38.8178C42.9037 38.8178 46.2677 38.7421 47.9933 38.0413" stroke="#E48544" stroke-width="0.541667" stroke-linecap="round"/>
<path d="M58.0754 42.7803C58.0754 42.7803 66.5864 48.184 72.0733 52.3911C73.2602 53.3019 73.7739 54.5129 73.7739 54.5129" stroke="#78D389" stroke-width="0.722222" stroke-linecap="round"/>
<path fill-rule="evenodd" clip-rule="evenodd" d="M51.441 54.6726C53.0758 55.0447 54.4784 53.5524 55.3711 52.3363C56.6579 50.5841 57.38 48.4446 57.3477 46.2433C57.3197 44.3277 56.9419 42.0147 55.6672 40.5331C55.6227 40.5085 55.5825 39.9957 55.5825 39.9957C55.5721 41.2219 55.1243 42.3888 54.3468 43.2264C51.2996 46.5069 48.0781 48.7303 48.0702 48.736C47.8423 48.893 48.7654 51.4545 48.8776 51.7472C49.2438 52.7002 49.7538 53.741 50.6159 54.3112C50.8914 54.4935 51.1674 54.6101 51.441 54.6726Z" fill="#00804A"/>
<path fill-rule="evenodd" clip-rule="evenodd" d="M51.3572 52.8661C52.6776 52.9052 54.4495 50.8016 55.8851 48.191C57.0123 46.141 57.0921 41.483 55.4738 39.7944C55.4311 39.773 55.4086 39.7667 55.4086 39.7667L55.4067 39.9679C55.3976 41.0433 54.9595 42.0683 54.2003 42.8025C51.2195 45.6844 48.0693 47.6365 48.0693 47.6365C48.0693 47.6365 49.1576 52.8011 51.3572 52.8661Z" fill="#00B14F"/>
<path d="M29.7216 54.243C28.2081 57.2428 26.307 61.4127 25.0786 65.5693" stroke="#78D389" stroke-width="0.722222" stroke-linecap="round"/>
<path d="M42.8567 44.7957C40.9776 45.6365 36.1238 47.7709 34.0058 48.8432C32.75 49.479 31.7142 50.4901 31.0281 51.751C30.8703 52.0411 30.699 52.3596 30.5168 52.7046" stroke="#78D389" stroke-width="0.722222" stroke-linecap="round"/>
<path fill-rule="evenodd" clip-rule="evenodd" d="M107.635 80.3586C110.545 76.4921 116.272 68.6815 119.48 62.9474C119.617 62.7027 119.573 62.398 119.377 62.2019C118.537 61.3573 116.26 59.1364 114.544 58.0591C114.308 57.9109 114.011 57.9437 113.817 58.1462C111.861 60.1816 101.466 71.0418 100.117 73.2936C98.5327 77.3146 100.661 79.8313 102.755 81.2435C104.345 82.3158 106.469 81.9077 107.635 80.3586Z" fill="#00B14F"/>
<path fill-rule="evenodd" clip-rule="evenodd" d="M114.074 58.7845C114.074 58.7845 117.023 58.9347 118.837 62.6176L115.744 62.3003L114.074 58.7845Z" fill="#00804A"/>
<path fill-rule="evenodd" clip-rule="evenodd" d="M100.953 85.397L83.4025 83.9544C77.2898 69.0208 73.1453 55.9454 73.1453 55.9454C77.7846 51.6891 84.0045 48.3802 84.0045 48.3802C84.651 47.137 86.1134 46.0471 86.1134 46.0471C86.1134 46.0471 91.5272 47.3956 93.1699 47.6914C93.6908 47.7848 94.2447 49.2052 95.0856 49.9716C96.3828 50.5386 98.3606 51.7263 99.6512 52.5312C100.324 52.9506 100.985 53.4369 101.536 54.0185C102.404 54.9337 102.375 56.1611 102.64 57.3381C102.89 58.4482 103.275 59.5167 103.802 60.5183C104.514 61.87 105.594 63.1113 105.632 64.7267C105.69 67.1847 104.252 69.7966 103.395 71.1805C102.955 71.8907 102.707 72.7057 102.669 73.5477L100.953 85.397Z" fill="#00B14F"/>
<path fill-rule="evenodd" clip-rule="evenodd" d="M112.94 60.7927L116.658 56.6745L120.413 59.9992L116.732 65.0534L112.94 60.7927Z" fill="#FDB47E"/>
<path fill-rule="evenodd" clip-rule="evenodd" d="M114.074 58.7845C114.074 58.7845 115.768 61.7737 118.837 62.6176L114.952 68.2048L109.731 63.5259L114.074 58.7845Z" fill="#00B14F"/>
<path fill-rule="evenodd" clip-rule="evenodd" d="M113.798 68.2822C111.786 74.8326 109.71 78.1074 106.732 76.4731C103.784 74.8565 104.818 69.8597 105.915 66.5319C103.209 69.4725 100.731 72.2705 100.118 73.2929C98.5331 77.3114 100.658 79.8275 102.751 81.2403C104.344 82.3158 106.473 81.9039 107.642 80.351C110.437 76.6352 115.818 69.294 119.081 63.6418C117.214 63.2085 115.097 64.0569 113.798 68.2822Z" fill="#00804A"/>
<path d="M96.87 50.8797C97.8473 51.4227 98.874 52.0466 99.6509 52.531C100.324 52.9504 100.985 53.4374 101.536 54.0189C102.404 54.9341 102.375 56.1616 102.64 57.3379" stroke="#78D389" stroke-width="0.722222" stroke-linecap="round"/>
<path fill-rule="evenodd" clip-rule="evenodd" d="M104.204 86.0869C104.331 87.5856 101.798 88.6484 98.1231 88.9827C94.4471 89.3164 90.2574 89.7762 90.1301 88.2775C90.0027 86.7789 93.9864 83.8894 97.6624 83.5545C101.337 83.2202 104.077 84.5877 104.204 86.0869Z" fill="#00B14F"/>
<path fill-rule="evenodd" clip-rule="evenodd" d="M102.669 73.5475C102.707 72.7054 102.955 71.8905 103.394 71.1803C103.858 70.4316 104.474 69.3215 104.942 68.0713C103.087 71.3834 100.667 73.5223 97.5178 73.8036C79.9244 75.376 80.569 59.5228 80.569 59.5228L74.2693 59.3626C75.6214 63.3899 78.1183 70.5855 81.3502 78.8281C79.8695 81.201 79.0214 83.9473 79.0214 86.8765C79.0214 94.2178 104.236 94.2178 104.236 86.8765C104.236 84.2892 102.976 81.845 101.802 79.6746L102.669 73.5475Z" fill="#00804A"/>
<path d="M104.054 86.8766C104.054 84.2892 102.794 81.8451 101.62 79.6747L102.855 71.4775" stroke="#03633E" stroke-width="0.722222" stroke-linecap="round"/>
<path fill-rule="evenodd" clip-rule="evenodd" d="M77.8329 74.6373H80.1203V70.9335H77.8329V74.6373Z" fill="#03633E"/>
<path fill-rule="evenodd" clip-rule="evenodd" d="M73.1971 56.106C73.2105 56.1502 73.2287 56.2044 73.2482 56.2669C73.2543 56.2839 73.2604 56.3041 73.2665 56.323C73.2793 56.3615 73.2933 56.4069 73.3086 56.4517C73.8557 58.1446 75.7647 63.9576 78.5853 71.5714C78.592 71.5909 78.5993 71.6098 78.6066 71.6294C85.2646 75.0613 96.5162 80.031 96.5162 80.031C99.3435 77.4436 101.636 74.8651 102.723 73.0479V73.0473C102.742 72.9161 102.77 72.7874 102.8 72.6588C102.812 72.6014 102.825 72.5446 102.84 72.4891C102.868 72.3812 102.9 72.2753 102.936 72.1699C102.966 72.0791 103.001 71.9914 103.037 71.9031C103.068 71.8262 103.097 71.7486 103.132 71.6735C103.211 71.5045 103.296 71.3392 103.395 71.1803C104.252 69.7964 105.632 67.1851 105.632 64.7265V64.7239C105.585 62.8128 104.332 61.878 103.35 59.5695C100.747 63.6094 96.6235 66.3948 96.6235 66.3948C90.1793 64.0945 77.3556 57.6362 73.7131 55.4368C73.7052 55.4437 73.6979 55.4507 73.6906 55.457C73.5072 55.6185 73.325 55.7806 73.1453 55.9452C73.1453 55.9452 73.1605 55.9931 73.1873 56.077C73.1904 56.0871 73.1934 56.0947 73.1971 56.106Z" fill="#00804A"/>
<path fill-rule="evenodd" clip-rule="evenodd" d="M97.2948 71.2501C95.5314 71.5522 93.9551 71.6891 92.5409 71.6922C89.6192 70.0214 86.6786 69.2052 84.5607 68.8072C83.7929 68.6628 83.1087 68.2149 82.6334 67.5735C82.6285 67.5659 82.6224 67.5577 82.6169 67.5507C82.1386 66.9004 81.9314 66.0849 81.9954 65.2706C82.2745 61.7062 81.1771 59.6348 81.1771 59.6348L80.5227 60.6245C80.5203 59.9452 80.5696 59.5226 80.5696 59.5226L74.2693 59.3624C74.8682 61.1468 75.6939 63.5556 76.7066 66.399L75.0748 68.8678L77.6869 69.1245C77.9819 69.935 78.2883 70.7695 78.6064 71.6298C79.3437 72.0095 80.1394 72.4088 80.9675 72.8175L80.8127 74.2152L94.6388 79.781L95.1616 79.4278C96.0128 79.8081 96.5167 80.0308 96.5167 80.0308C99.3433 77.4428 101.636 74.8649 102.723 73.0484C102.819 72.3848 103.043 71.7484 103.395 71.1807C103.858 70.4314 104.474 69.3206 104.943 68.0718C103.087 71.3838 100.413 70.7152 97.2948 71.2501Z" fill="#03633E"/>
<path fill-rule="evenodd" clip-rule="evenodd" d="M92.317 52.7988C92.317 52.7988 93.4071 54.3795 95.1058 56.0465C97.4968 58.3929 96.6413 47.6645 92.9141 47.1795C89.427 46.7247 92.317 52.7988 92.317 52.7988Z" fill="#00804A"/>
<path d="M84.6463 49.8682C84.6463 49.8682 80.06 52.7097 79.149 53.7712" stroke="white" stroke-width="0.722222" stroke-linecap="round"/>
<path d="M85.6385 50.8999C85.6385 50.8999 81.0522 53.7414 80.1412 54.803" stroke="white" stroke-width="0.722222" stroke-linecap="round"/>
<path fill-rule="evenodd" clip-rule="evenodd" d="M85.5632 46.481L85.5608 46.6431C85.5468 47.5154 85.8459 48.3524 86.3772 48.9648C88.4422 51.3478 91.0477 52.2164 91.0477 52.2164L91.9897 53.4274C91.9897 53.4274 90.6711 59.0953 88.7396 58.93C86.8458 58.7679 84.2044 55.1531 83.8876 51.6108C83.7377 49.9312 84.0229 47.9247 85.1202 46.8253C85.431 46.5138 85.5632 46.481 85.5632 46.481Z" fill="#00804A"/>
<path fill-rule="evenodd" clip-rule="evenodd" d="M85.5632 46.481L85.5608 46.6248C85.5468 47.3968 85.8459 48.1386 86.3772 48.6816C88.4422 50.7928 91.0477 51.5629 91.0477 51.5629L91.9897 52.6358C91.9897 52.6358 90.6705 57.6578 88.7396 57.5115C86.8458 57.3683 84.2044 54.1654 83.8876 51.0261C83.7377 49.5376 84.0229 47.7601 85.1202 46.7856C85.431 46.51 85.5632 46.481 85.5632 46.481Z" fill="#00B14F"/>
<path fill-rule="evenodd" clip-rule="evenodd" d="M80.5886 25.4085C80.3132 28.279 82.291 31.3192 85.0634 31.6043C87.8364 31.8894 90.0878 29.5323 90.3633 26.6618C90.6387 23.7919 88.857 21.2588 86.0846 20.9737C83.3116 20.6886 80.864 22.5386 80.5886 25.4085Z" fill="#3D2E2C"/>
<path fill-rule="evenodd" clip-rule="evenodd" d="M99.8546 27.5367C100.173 27.731 100.338 27.871 100.554 28.0514C100.756 28.2249 100.945 28.4072 101.123 28.6008C101.482 28.9849 101.796 29.4132 102.063 29.8699C102.598 30.7857 102.91 31.8416 102.975 32.8817C103.045 33.9237 102.888 34.9341 102.614 35.867C102.476 36.3275 102.298 36.7967 102.125 37.2042L101.62 38.4152C100.958 40.0337 100.337 41.6705 99.8034 43.3319C99.5371 44.162 99.294 45.0003 99.1008 45.8448C98.9083 46.6875 98.7627 47.5466 98.7755 48.3773V48.3937C98.7779 48.5678 98.6439 48.711 98.4757 48.7142C98.3179 48.7166 98.1863 48.593 98.168 48.4334C98.0674 47.4942 98.1454 46.5797 98.2636 45.684C98.3837 44.7871 98.5543 43.9034 98.7493 43.0285C99.1386 41.277 99.6175 39.5556 100.139 37.8501L100.538 36.5735C100.671 36.1546 100.773 35.7869 100.856 35.3902C101.012 34.6106 101.053 33.8335 100.938 33.1113C100.825 32.3884 100.555 31.7262 100.151 31.1597C99.9472 30.8778 99.7162 30.6154 99.4573 30.3864C99.3293 30.2704 99.1935 30.1638 99.0558 30.0667C98.9327 29.9777 98.7462 29.8635 98.6902 29.8434C98.0315 29.5999 97.6872 28.8499 97.9218 28.1681C98.1576 27.4856 98.8815 27.1293 99.5408 27.3727C99.6157 27.4005 99.687 27.4345 99.7534 27.4743L99.8546 27.5367Z" fill="#3D2E2C"/>
<path fill-rule="evenodd" clip-rule="evenodd" d="M81.8161 32.4867C81.2616 38.2587 85.2392 44.3725 90.8157 44.9465C96.391 45.5199 100.919 40.7792 101.473 35.0078C102.027 29.2358 98.4438 24.1419 92.8685 23.5673C87.292 22.9939 82.37 26.7147 81.8161 32.4867Z" fill="#3D2E2C"/>
<path fill-rule="evenodd" clip-rule="evenodd" d="M85.9206 40.097C85.9206 40.097 86.3922 43.3851 85.647 47.2257C85.3381 48.8158 86.0029 50.452 87.0363 51.6422V51.6428C88.013 52.7675 89.3748 53.4203 90.8098 53.4512C92.5817 53.4897 94.0209 51.9399 93.977 50.0445C93.9429 48.5925 93.9795 46.8586 94.2067 45.1909L85.9206 40.097Z" fill="#FDB47E"/>
<path fill-rule="evenodd" clip-rule="evenodd" d="M86.0433 43.8039L87.2742 44.2788C86.7428 43.638 86.2566 42.4945 86.0555 41.9394C86.072 42.4749 86.0738 43.1038 86.0433 43.8039Z" fill="#E48544"/>
<path fill-rule="evenodd" clip-rule="evenodd" d="M94.2065 45.1929C93.9311 46.9931 93.9061 48.8677 93.9603 50.3846C93.8963 51.2557 93.5064 52.0303 92.9184 52.5847C92.2725 51.684 91.3756 50.5776 90.308 49.0468C87.9786 45.7083 87.2566 42.1464 87.2566 42.1464L89.8639 42.7236L94.2065 45.191H94.2071C94.2065 45.1917 94.2065 45.1923 94.2065 45.1929Z" fill="#E48544"/>
<path fill-rule="evenodd" clip-rule="evenodd" d="M99.545 33.389C99.5761 34.3792 99.5621 35.6004 99.4335 36.9357C99.4335 36.9357 99.2154 39.3489 98.9991 40.9214C98.7712 42.5695 98.0949 44.1527 97.3771 45.6286C97.0383 46.3269 96.7751 47.0724 96.3242 47.707C95.7886 48.4601 95.1988 48.6159 94.3262 48.6109C93.4013 48.6051 92.4794 48.1359 91.6489 47.7543C89.456 46.7476 86.3777 44.9355 86.307 42.0819L86.4557 35.9265L87.4135 29.6505L91.7909 30.1009L97.0468 30.6421C98.4257 30.784 99.5012 31.9559 99.545 33.389Z" fill="#FDB47E"/>
<path fill-rule="evenodd" clip-rule="evenodd" d="M87.274 38.3703L83.9879 38.0322L84.8739 28.8138L92.2996 29.5783C92.2996 29.5783 92.6 35.0034 87.274 38.3703Z" fill="#3D2E2C"/>
<path fill-rule="evenodd" clip-rule="evenodd" d="M86.9932 36.8607C87.1943 38.0648 88.087 40.8628 85.9812 41.088C85.002 41.1933 83.0857 38.9403 82.8468 37.2209C82.6793 36.0111 83.4105 34.9597 84.556 34.8606C85.7009 34.761 86.7922 35.6566 86.9932 36.8607Z" fill="#FDB47E"/>
<path d="M84.3142 35.9797C84.3142 35.9797 85.5335 35.6334 85.9831 37.1195C86.2293 37.9313 85.5596 38.6352 85.3811 39.3776C85.3531 39.4955 85.3464 39.6248 85.3957 39.7358C85.428 39.8084 85.4823 39.8696 85.5469 39.9131C85.6779 40.0001 85.8418 40.0108 85.9849 39.9522" stroke="#E48544" stroke-width="0.541667" stroke-linecap="round"/>
<path fill-rule="evenodd" clip-rule="evenodd" d="M98.9602 38.6432C98.8773 39.04 98.5587 39.3055 98.2467 39.2361C97.9347 39.1668 97.7495 38.7889 97.8312 38.3928C97.9134 37.9961 98.2333 37.7305 98.5447 37.7993C98.8566 37.868 99.0425 38.2465 98.9602 38.6432Z" fill="#3D2E2C"/>
<path fill-rule="evenodd" clip-rule="evenodd" d="M93.4687 38.0365C93.4297 38.4477 93.0751 38.7486 92.6778 38.707C92.2805 38.6666 91.9899 38.3001 92.0295 37.8889C92.0691 37.477 92.4231 37.1768 92.821 37.2178C93.2183 37.2588 93.5083 37.6252 93.4687 38.0365Z" fill="#3D2E2C"/>
<path fill-rule="evenodd" clip-rule="evenodd" d="M93.7774 37.3836C93.7774 37.3836 92.5874 36.8714 91.2737 37.1364L93.7774 37.3836Z" fill="#FDB47E"/>
<path d="M93.7774 37.3836C93.7774 37.3836 92.5874 36.8714 91.2737 37.1364" stroke="#3D2E2C" stroke-width="0.541667" stroke-linecap="round"/>
<path fill-rule="evenodd" clip-rule="evenodd" d="M97.4073 37.9184C97.4073 37.9184 98.2817 37.54 99.2798 37.774L97.4073 37.9184Z" fill="#FDB47E"/>
<path d="M97.4073 37.9184C97.4073 37.9184 98.2817 37.54 99.2798 37.774" stroke="#3D2E2C" stroke-width="0.541667" stroke-linecap="round"/>
<path fill-rule="evenodd" clip-rule="evenodd" d="M96.6728 37.2693C96.6728 37.2693 96.3426 37.7247 96.4906 38.7313C96.59 39.4106 96.8288 40.5674 96.9732 41.2505C97.0603 41.6593 96.8587 42.0907 96.4778 42.2307C96.267 42.3077 96.0001 42.355 95.6711 42.3228C94.918 42.2484 94.4244 41.8964 94.4244 41.8964" fill="#FDB47E"/>
<path d="M96.6728 37.2693C96.6728 37.2693 96.3426 37.7247 96.4906 38.7313C96.59 39.4106 96.8288 40.5674 96.9732 41.2505C97.0603 41.6593 96.8587 42.0907 96.4778 42.2307C96.267 42.3077 96.0001 42.355 95.6711 42.3228C94.918 42.2484 94.4244 41.8964 94.4244 41.8964" stroke="#E48544" stroke-width="0.541667" stroke-linecap="round"/>
<path fill-rule="evenodd" clip-rule="evenodd" d="M94.2875 41.9887C94.2875 41.9887 94.9181 42.2479 95.6712 42.3223C96.0003 42.3551 96.2671 42.3078 96.478 42.2309C96.6809 42.1558 96.9721 42.0032 97.0568 41.8102C97.0568 41.8102 96.7966 42.7689 95.865 43.3177C95.213 43.3082 94.2875 41.9887 94.2875 41.9887Z" fill="#E48544"/>
<path fill-rule="evenodd" clip-rule="evenodd" d="M92.4702 43.9394C93.6511 44.3778 95.9311 44.3582 95.9311 44.3582C95.9311 44.3582 95.4796 44.8527 95.0659 45.0432C95.0659 45.0432 93.6742 45.3157 92.4702 43.9394Z" fill="white"/>
<path fill-rule="evenodd" clip-rule="evenodd" d="M95.9311 44.3582C95.9311 44.3582 94.4109 44.5544 92.4702 43.9394L95.9311 44.3582Z" fill="#FDB47E"/>
<path d="M95.9311 44.3582C95.9311 44.3582 94.4109 44.5544 92.4702 43.9394" stroke="#E48544" stroke-width="0.541667" stroke-linecap="round"/>
<path fill-rule="evenodd" clip-rule="evenodd" d="M94.3514 35.4426C93.8621 35.1669 93.3095 35.0112 92.7568 35.0263C92.2042 35.0383 91.6582 35.2288 91.186 35.5605C91.0471 35.6583 90.8576 35.6211 90.7619 35.4773C90.6711 35.3391 90.7022 35.1512 90.8283 35.0496C91.3609 34.6239 92.0238 34.34 92.7148 34.282C93.4057 34.2202 94.1046 34.3722 94.7243 34.6737L94.7274 34.675C94.9351 34.7765 95.0241 35.0332 94.9266 35.2477C94.8291 35.4634 94.5811 35.5561 94.3733 35.4546C94.366 35.4514 94.3581 35.4464 94.3514 35.4426Z" fill="#3D2E2C"/>
<path fill-rule="evenodd" clip-rule="evenodd" d="M97.2996 34.8989C97.8761 34.7179 98.525 34.7248 99.0941 34.955C99.6668 35.1808 100.13 35.6072 100.469 36.0859C100.568 36.226 100.539 36.4234 100.403 36.5268C100.272 36.6265 100.088 36.6006 99.9861 36.4707L99.9837 36.4676C99.6784 36.0752 99.2958 35.7624 98.8625 35.6148C98.4318 35.4634 97.9601 35.4785 97.5257 35.6343C97.3307 35.7043 97.1181 35.5977 97.051 35.3959C96.9828 35.1947 97.0864 34.9746 97.2814 34.9046C97.2856 34.9033 97.2893 34.902 97.2935 34.9001L97.2996 34.8989Z" fill="#3D2E2C"/>
<path d="M92.3168 53.418C92.3168 53.418 96.4303 61.6474 96.7008 68.0905C96.7008 68.0905 96.4138 71.4196 96.2109 73.8713C96.2109 73.8713 96.6356 78.9501 96.8385 81.6819C96.8385 81.6819 99.3416 86.4434 97.1773 91.8357" stroke="#00804A" stroke-width="0.722222" stroke-linecap="round"/>
<path fill-rule="evenodd" clip-rule="evenodd" d="M94.6755 84.2174C94.8333 83.2114 95.4189 82.3984 96.2177 81.9177C95.3567 82.095 94.3794 82.2337 93.2893 82.2886C92.1274 82.3479 91.0013 82.8071 90.1775 83.6561C87.8396 86.0687 91.4169 87.4229 89.5481 91.7675C90.4639 91.953 91.4145 92.0495 92.3936 92.0324C92.552 92.0299 92.708 92.023 92.864 92.0135C93.8554 91.953 94.7346 91.3039 95.0691 90.3357C96.119 87.2949 94.4251 85.8132 94.6755 84.2174Z" fill="#211918"/>
<path fill-rule="evenodd" clip-rule="evenodd" d="M89.3797 85.0894C89.6344 83.4646 91.0017 82.3374 92.5921 82.3122C94.9379 82.2744 96.8195 81.8436 98.1631 81.4052C98.065 79.9677 97.7457 78.5056 97.1814 77.0757L97.154 77.007C95.4437 72.68 91.3509 69.877 86.8358 69.9382L86.7262 69.9388C86.2801 69.947 85.8402 69.9767 85.407 70.0265C79.0451 70.767 74.4204 77.1306 75.4142 83.6784C75.5421 84.5205 75.7585 85.3524 76.0759 86.1573C76.9734 88.4292 78.9385 89.9165 80.6092 91.3149C82.5097 92.355 84.727 92.9454 87.0979 92.9044C87.7797 92.8924 88.4408 92.8123 89.0909 92.7019C91.3807 88.6128 89.0909 86.9268 89.3797 85.0894Z" fill="#00B14F"/>
<path fill-rule="evenodd" clip-rule="evenodd" d="M84.6587 88.8561C83.1586 87.6015 81.3952 86.2662 80.5891 84.227C80.3046 83.5048 80.1102 82.7574 79.9956 82.0017C79.167 76.5439 82.6894 71.2317 87.7693 69.9696C87.461 69.9469 87.1496 69.9336 86.8358 69.938L86.7262 69.9393C86.2801 69.9469 85.8402 69.9765 85.4076 70.0263C79.0451 70.7668 74.4204 77.1305 75.4142 83.6783C75.5421 84.5203 75.7585 85.3523 76.0759 86.1577C76.9734 88.4291 78.9385 89.917 80.6092 91.3147C82.5097 92.3542 84.727 92.9452 87.0978 92.9042C87.7797 92.8922 88.4408 92.8121 89.0909 92.7024C89.6082 91.779 89.883 90.983 90.0159 90.2753C88.0642 90.233 86.2381 89.7202 84.6587 88.8561Z" fill="#00804A"/>
<path fill-rule="evenodd" clip-rule="evenodd" d="M85.2102 78.3181C81.9595 76.2095 75.2631 77.676 75.2187 81.6472C75.2016 83.1402 75.4307 84.6464 75.9955 86.0776C76.8931 88.3489 78.9385 89.9169 80.6093 91.3147C82.5091 92.3548 84.7271 92.9452 87.0979 92.9042C87.7797 92.8922 88.4408 92.8121 89.091 92.7023C91.3808 88.6125 89.091 86.9266 89.3798 85.0892C89.3841 85.0608 89.4011 85.0394 89.4066 85.011C88.545 81.2769 87.7712 79.9795 85.2102 78.3181Z" fill="#00804A"/>
<path d="M80.6094 91.3153C82.5092 92.3548 84.7271 92.9458 87.0974 92.9048C87.2552 92.9022 87.4118 92.8953 87.5678 92.8858C88.561 92.8247 89.4402 92.1725 89.7747 91.2024C91.103 87.3479 88.0205 86 90.094 83.7457C90.933 82.8336 92.1145 82.3504 93.3295 82.2874C95.3348 82.1827 96.9635 81.7973 98.1632 81.4056" stroke="#3D2E2C" stroke-width="1.44444" stroke-linecap="round"/>
<path d="M95.7393 93.131C85.7959 91.4236 81.6732 82.6764 81.6732 82.6764" stroke="white" stroke-width="0.722222" stroke-linecap="round"/>
<path d="M81.6732 82.6764C81.6732 82.6764 83.2836 86.0931 86.9188 89.0734" stroke="#005339" stroke-width="0.722222" stroke-linecap="round"/>
<path d="M82.6321 81.8138C82.6321 81.8138 98.3647 82.1563 99.3969 80.4325C99.0977 79.8497 97.8803 79.6214 97.8803 79.6214" stroke="white" stroke-width="0.722222" stroke-linecap="round"/>
<path d="M99.7072 81.7437C99.7072 81.7437 99.6444 86.3728 97.3467 92.9957" stroke="white" stroke-width="0.722222" stroke-linecap="round"/>
<path fill-rule="evenodd" clip-rule="evenodd" d="M87.2172 88.0303L89.7056 87.3402C90.4411 87.1365 91.2246 87.3207 91.8035 87.8335C92.7211 88.6465 93.9922 89.8317 94.083 90.236L87.2172 88.0303Z" fill="#E48544"/>
<path fill-rule="evenodd" clip-rule="evenodd" d="M86.9997 95.8647C88.5937 96.1365 91.0108 96.4134 93.8472 96.293C94.1775 96.2785 94.4961 96.1592 94.7606 95.9543C95.3583 95.4913 96.3881 94.5155 96.8926 92.9853C97.1272 92.2738 96.8274 91.4968 96.2022 91.1151C92.0065 88.5568 83.6582 87.1004 83.6582 87.1004C83.6582 87.1004 83.0422 89.7685 84.089 93.2263C84.5052 94.6026 85.6251 95.6307 86.9997 95.8647Z" fill="#FDB47E"/>
<path fill-rule="evenodd" clip-rule="evenodd" d="M93.7923 89.9213C93.3323 92.2608 91.4483 95.0563 89.1823 96.1576C90.516 96.2906 92.1009 96.367 93.8466 96.2932C94.1774 96.2787 94.4955 96.1595 94.7606 95.9538C95.3577 95.4915 96.3874 94.5163 96.892 92.9861C97.1253 92.2791 96.8335 91.502 96.2126 91.1223C95.5045 90.6902 94.6771 90.2897 93.7923 89.9213Z" fill="#E48544"/>
<path fill-rule="evenodd" clip-rule="evenodd" d="M86.5277 86.3985C85.247 85.2959 82.7573 83.1249 81.195 81.5934C80.3304 80.7451 79.194 79.9762 78.0022 79.4495H78.0028C78.1033 78.562 78.2575 76.9442 78.4476 74.1266C78.7614 69.4685 85.3383 57.8899 77.4544 54.9367C75.8543 54.3369 74.0611 54.8049 72.9253 56.1168C72.0546 57.1216 71.1729 58.491 70.9761 60.0578C70.5752 63.2311 68.6644 72.4766 67.3982 80.7798C67.3074 81.3809 67.4872 81.9883 67.8857 82.4348C69.4705 84.2098 73.8649 88.9202 78.8814 92.4701C80.0227 93.2774 80.9549 93.8388 82.0005 94.3749C82.7829 94.7754 83.7279 94.5957 84.3214 93.9328C85.3298 92.8075 86.7544 90.8434 87.209 88.3462C87.3418 87.6177 87.0786 86.8728 86.5277 86.3985Z" fill="#00B14F"/>
<path fill-rule="evenodd" clip-rule="evenodd" d="M76.7715 78.7236C77.0591 78.863 76.9543 79.3152 76.6368 79.3013C75.253 79.2402 73.0601 79.3878 71.234 80.6164C68.5152 82.4456 71.3187 76.082 76.7715 78.7236Z" fill="#00804A"/>
<path fill-rule="evenodd" clip-rule="evenodd" d="M70.6581 62.1148C70.2901 64.272 69.7057 67.3418 69.0787 70.7617C70.6081 72.5676 73.6943 75.4551 78.2928 76.2663C78.341 75.6419 78.3921 74.9392 78.4476 74.1268C78.5365 72.806 79.1288 70.9289 79.7527 68.8499C74.8898 67.5771 71.959 64.0676 70.6581 62.1148Z" fill="#00804A"/>
<path fill-rule="evenodd" clip-rule="evenodd" d="M78.2312 77.0339C78.269 76.581 78.3086 76.0689 78.3507 75.4955C73.6077 74.6295 70.5331 71.4007 69.2584 69.7847C69.1421 70.4155 69.0245 71.0607 68.905 71.7167C70.6184 73.619 73.7241 76.2612 78.2312 77.0339Z" fill="#EBFAFF"/>
<path fill-rule="evenodd" clip-rule="evenodd" d="M73.3394 75.2865C74.7292 76.0667 76.3573 76.7132 78.231 77.0343C78.2687 76.5814 78.3083 76.0686 78.351 75.4952C76.5279 75.1628 74.954 74.4804 73.6318 73.6749C73.6751 74.2085 73.5642 74.7491 73.3394 75.2865Z" fill="#EBFAFF"/>
<path fill-rule="evenodd" clip-rule="evenodd" d="M91.9924 53.2115C91.9924 53.2115 86.0473 52.5903 85.1881 47.2257L84.6276 49.0581L86.5341 52.3853L89.6733 54.7462L91.9924 53.2115Z" fill="#00B14F"/>
<path fill-rule="evenodd" clip-rule="evenodd" d="M92.377 57.7079L92.0925 54.1852C92.0846 54.076 92.1461 53.9953 92.2259 53.9612L92.2247 53.96L92.6811 53.7771L92.6823 53.7796C92.767 53.7405 92.8718 53.7525 92.9413 53.8446L95.0263 56.6438C95.1634 56.8286 95.0909 57.0986 94.8807 57.1831L94.4207 57.3679L93.2959 57.8195L92.8346 58.005C92.625 58.0889 92.3953 57.9406 92.377 57.7079Z" fill="#00804A"/>
<path fill-rule="evenodd" clip-rule="evenodd" d="M92.6287 54.0511L92.7219 54.0133C92.9449 53.9244 93.0552 53.6645 92.9693 53.4336L92.8035 52.9921C92.7176 52.7613 92.466 52.6465 92.243 52.7367L92.1503 52.7739C91.9279 52.8628 91.817 53.1227 91.9036 53.3542L92.0687 53.7957C92.1552 54.0259 92.4063 54.1407 92.6287 54.0511Z" fill="#00804A"/>
<path fill-rule="evenodd" clip-rule="evenodd" d="M92.9824 53.8257L94.9323 56.4445C95.0614 56.6173 94.9932 56.869 94.797 56.9479L93.3145 57.5439C93.1183 57.6228 92.9032 57.4834 92.8862 57.2664L92.6199 53.9707C92.6034 53.7626 92.8594 53.6598 92.9824 53.8257Z" fill="white"/>
<path fill-rule="evenodd" clip-rule="evenodd" d="M93.4113 55.2897L94.2443 56.408C94.2991 56.4818 94.2705 56.5896 94.1864 56.6231L93.5527 56.8779C93.4692 56.9107 93.3778 56.852 93.3705 56.7587L93.2566 55.3515C93.2493 55.2625 93.3589 55.219 93.4113 55.2897Z" fill="#00804A"/>
<path fill-rule="evenodd" clip-rule="evenodd" d="M92.7213 53.7141C92.8901 53.646 92.9742 53.4485 92.909 53.2738L92.7652 52.891C92.7 52.7163 92.5093 52.6292 92.3405 52.6973C92.1717 52.7648 92.087 52.9622 92.1528 53.1376L92.2966 53.5192C92.3618 53.6952 92.5525 53.7816 92.7213 53.7141Z" fill="white"/>
<path d="M75.1173 54.2587C79.3691 50.8463 84.0042 48.3807 84.0042 48.3807C84.1663 48.0692 84.3783 47.7683 84.6062 47.4914" stroke="#B1EABA" stroke-width="0.541667" stroke-linecap="round"/>
<path fill-rule="evenodd" clip-rule="evenodd" d="M88.4131 37.1824C87.9086 37.7929 87.3919 38.5795 86.9532 39.3446C86.5065 40.1217 86.0995 40.9322 85.7534 41.7717C85.4049 42.6106 85.0929 43.4728 84.8547 44.3591C84.5963 45.2415 84.43 46.1497 84.2825 47.0662L84.2807 47.0795C84.2508 47.2637 84.0833 47.3885 83.9054 47.3576C83.7421 47.3299 83.6275 47.181 83.633 47.0139C83.6622 46.057 83.7146 45.0914 83.8639 44.137C83.9937 43.1795 84.2027 42.2315 84.4574 41.2949C84.7097 40.3557 85.0302 39.4354 85.4031 38.5322C85.7857 37.6176 86.1818 36.768 86.7497 35.8559C87.0641 35.3501 87.7154 35.2037 88.2047 35.5298C88.694 35.8559 88.8354 36.5308 88.5203 37.0373C88.4954 37.0777 88.4679 37.1155 88.4393 37.1508L88.4131 37.1824Z" fill="#3D2E2C"/>
<path fill-rule="evenodd" clip-rule="evenodd" d="M15.0839 56.9837L9.12787 56.7358C8.86038 56.7251 8.63127 56.5346 8.56242 56.2672L5.19411 43.2012C5.09175 42.8039 5.37813 42.4115 5.77662 42.4071L11.6242 42.3364C11.9027 42.3333 12.1489 42.5257 12.2208 42.8045L15.6981 56.1884C15.8048 56.6002 15.4952 57.0008 15.0839 56.9837Z" fill="#6B514C"/>
<path fill-rule="evenodd" clip-rule="evenodd" d="M14.2586 56.9615L8.31352 56.7136C8.04725 56.7029 7.81875 56.513 7.74929 56.2462L4.38708 43.2042C4.28471 42.8075 4.5717 42.4158 4.96898 42.4114L10.8056 42.3407C11.0841 42.3376 11.3284 42.53 11.4015 42.8081L14.8716 56.1668C14.9788 56.5786 14.6699 56.9779 14.2586 56.9615Z" fill="#3D2E2C"/>
<path fill-rule="evenodd" clip-rule="evenodd" d="M7.49898 55.1808L10.9416 55.5025C11.2908 55.5353 11.6204 55.3252 11.7429 54.9859C11.8501 54.6876 11.9543 54.3268 11.9823 54.0284C12.4838 53.4834 12.5977 52.8887 12.3254 52.2453C12.9134 51.7401 12.9585 51.0973 12.6855 50.3739L12.7001 50.3581C13.3174 49.7355 13.0675 48.6595 12.2474 48.3857C10.4609 47.7872 8.5994 47.7581 6.71844 47.7581H6.50152C5.64848 47.7581 4.90816 48.37 4.71927 49.2309L3.72243 53.7686C3.5902 54.3697 3.74984 55.0004 4.14956 55.4571L10.3445 62.546C10.3445 62.546 14.207 64.2882 15.0813 60.1C15.0813 56.2852 7.49898 55.1808 7.49898 55.1808Z" fill="#FDB47E"/>
<path fill-rule="evenodd" clip-rule="evenodd" d="M23.8846 65.9176C19.1313 63.3871 15.5443 60.2232 15.0623 59.7893C14.6644 56.2255 7.49824 55.181 7.49824 55.181L10.9415 55.5021C11.29 55.5349 11.6197 55.3255 11.7415 54.9861C11.8494 54.6871 11.9536 54.327 11.9822 54.028C12.4831 53.483 12.5976 52.8889 12.3246 52.2449C12.9126 51.7396 12.9577 51.0975 12.6848 50.3734L12.7 50.3577C13.3166 49.7358 13.0668 48.6603 12.2467 48.3853C10.4607 47.7874 8.59867 47.7584 6.71771 47.7584H6.5014C5.64775 47.7584 4.90743 48.3696 4.71854 49.2312L3.72169 53.7681C3.58947 54.3692 3.74911 54.9994 4.14882 55.4573L10.3438 62.5456C15.1208 69.487 22.2413 78.4538 26.512 83.0765C27.8793 84.5556 30.28 83.8908 30.7614 81.9058C32.8215 73.4147 30.358 69.364 23.8846 65.9176Z" fill="#FDB47E"/>
<path fill-rule="evenodd" clip-rule="evenodd" d="M4.14956 55.4573L10.3445 62.5456C15.1215 69.487 22.2414 78.4538 26.5127 83.0765C27.8794 84.5556 30.2807 83.8908 30.7621 81.9058C30.8206 81.663 31.0619 81.3363 31.1137 81.1004C28.8952 86.931 15.0856 67.6711 14.2648 66.5168C13.3978 65.2995 14.5463 62.8156 11.911 61.1328C3.18013 55.5557 3.72243 53.7681 3.72243 53.7681C3.5902 54.3692 3.74984 54.9994 4.14956 55.4573Z" fill="#E48544"/>
<path d="M5.927 51.2756C5.927 51.2756 9.64506 51.0107 12.3456 52.2527" stroke="#E48544" stroke-width="0.541667" stroke-linecap="round"/>
<path d="M6.32275 49.4207C6.32275 49.4207 10.0103 49.1577 12.7078 50.382" stroke="#E48544" stroke-width="0.541667" stroke-linecap="round"/>
<path d="M5.53149 53.0343C5.53149 53.0343 9.28306 52.7668 11.9872 54.0283" stroke="#E48544" stroke-width="0.541667" stroke-linecap="round"/>
<path fill-rule="evenodd" clip-rule="evenodd" d="M116.514 57.0571C116.514 57.0571 116.177 55.9009 118.609 53.5836C121.039 51.2662 125.344 53.108 125.344 53.108L120.266 58.767L116.514 57.0571Z" fill="#E48544"/>
<path fill-rule="evenodd" clip-rule="evenodd" d="M116.237 55.663L121.585 55.4959C121.825 55.4889 122.032 55.3199 122.096 55.0808L125.233 43.3849C125.328 43.0291 125.074 42.674 124.716 42.6664L119.469 42.5491C119.219 42.5434 118.996 42.7144 118.929 42.9635L115.692 54.9433C115.593 55.3117 115.868 55.675 116.237 55.663Z" fill="#F55538"/>
<path fill-rule="evenodd" clip-rule="evenodd" d="M116.978 55.6508L122.316 55.4836C122.555 55.4767 122.762 55.3083 122.826 55.0692L125.956 43.3953C126.053 43.0396 125.799 42.6857 125.442 42.6782L120.204 42.5608C119.954 42.5552 119.733 42.7255 119.665 42.974L116.435 54.9324C116.335 55.3001 116.609 55.6628 116.978 55.6508Z" fill="#79150C"/>
<path fill-rule="evenodd" clip-rule="evenodd" d="M123.849 54.288L120.76 53.9972C120.447 53.9676 120.188 53.7279 120.133 53.4075C120.085 53.1262 120.049 52.79 120.071 52.5219C119.713 51.9574 119.705 51.4131 120.046 50.8902C119.606 50.3458 119.666 49.7712 120.02 49.177L120.009 49.1613C119.562 48.5085 119.95 47.6002 120.716 47.4948C122.387 47.2652 124.036 47.551 125.696 47.8651L125.888 47.9017C126.641 48.0442 127.199 48.7071 127.232 49.4994L127.405 53.6718C127.427 54.2249 127.188 54.7548 126.764 55.0916L120.189 60.3161C120.189 60.3161 116.508 61.2098 116.388 57.3648C116.982 53.9966 123.849 54.288 123.849 54.288Z" fill="#FDB47E"/>
<path d="M125.847 51.103C125.847 51.103 122.605 50.2483 120.026 50.8936" stroke="#E48544" stroke-width="0.541667" stroke-linecap="round"/>
<path d="M125.786 49.3994C125.786 49.3994 122.572 48.551 119.998 49.1818" stroke="#E48544" stroke-width="0.541667" stroke-linecap="round"/>
<path d="M125.921 52.7217C125.921 52.7217 122.651 51.8589 120.067 52.5212" stroke="#E48544" stroke-width="0.541667" stroke-linecap="round"/>
<path d="M104 13L103.586 13.1689C102.818 13.4826 102.12 13.9464 101.533 14.5331C100.946 15.1199 100.483 15.8179 100.169 16.5862L100 17L99.8311 16.5862C99.5174 15.8179 99.0537 15.1199 98.4669 14.5331C97.8801 13.9463 97.1821 13.4826 96.4138 13.1689L96 13L96.4138 12.8311C97.1821 12.5175 97.8801 12.0537 98.4669 11.4669C99.0537 10.8801 99.5174 10.1821 99.8311 9.41383L100 9L100.169 9.41381C100.483 10.1821 100.946 10.8801 101.533 11.4669C102.12 12.0537 102.818 12.5175 103.586 12.8311L104 13Z" fill="#8CD421"/>
</g>
<defs>
<clipPath id="clip0_3192_139668">
<rect width="140" height="96" fill="white"/>
</clipPath>
</defs>
</svg>
